<?xml version="1.0" encoding="utf-8"?>
<!-- Generator: Adobe Illustrator 27.0.0, SVG Export Plug-In . SVG Version: 6.00 Build 0)  -->
<svg version="1.1" id="Layer_1" xmlns="http://www.w3.org/2000/svg" xmlns:xlink="http://www.w3.org/1999/xlink" x="0px" y="0px"
	 viewBox="0 0 512 512" style="enable-background:new 0 0 512 512;" xml:space="preserve">
<style type="text/css">
	.st0{fill:#334E94;}
	.st1{fill:#4C64A1;}
	.st2{fill:#667AAF;}
	.st3{fill:#002279;}
	.st4{fill:#8091BC;}
	.st5{fill:#99A7C9;}
	.st6{fill:#B2BDD7;}
	.st7{fill:#193886;}
</style>
<g>
	<g>
		<path class="st0" d="M438,223H296.9l-33,33H438c1.5,0,2.9-0.1,4.3-0.3c7.4-0.8,13.9-3.6,19.3-8.6c3.5-3.2,6-7.1,7.6-11.6
			c0.7-2,1.2-4.1,1.6-6.3c0.3-2,0.5-4.1,0.5-6.2v-99c0-9.8-3.1-17.9-9.4-24.2c-6.5-6.1-14.4-9.1-23.9-9.1h-39.5
			c1.5,3.9,2.3,8,2.3,12.2c0,0.5,0,1.1,0,1.6c-0.3,7.1-2.4,13.6-6.2,19.4H438V223z"/>
		<polygon class="st0" points="261.6,124 333.4,124 353.4,104 340.2,90.8 261.6,90.8 		"/>
	</g>
	<g>
		<path class="st1" d="M361.3,104l-99.8,99.8v46.6l123.1-123.1c1-1.1,2-2.2,2.9-3.2c4.7-5.8,7.3-12.4,7.6-19.7
			c0.2-4.8-0.7-9.3-2.8-13.6c-0.9-1.9-2.1-3.8-3.4-5.6c-1.2-1.6-2.5-3.2-4-4.7l-70-70C307.9,3.5,300.1,0,291.2,0
			c-8.9,0.3-16.6,3.8-23.3,10.5l-28,28c3.8,1.7,7.3,4,10.3,7c0.4,0.4,0.7,0.8,1.1,1.2c4.8,5.2,7.9,11.3,9.4,18.1L291.4,34L361.3,104
			z"/>
		<polygon class="st1" points="217.4,107.9 217.4,79.6 198.8,79.6 143.1,135.2 166.6,158.7 		"/>
	</g>
	<g>
		<polygon class="st2" points="124,250.4 124,178.6 103.9,158.5 90.8,171.7 90.8,250.4 		"/>
		<path class="st2" d="M223,74v141.1l33,33V74c0-1.5-0.1-2.9-0.3-4.3c-0.8-7.4-3.6-13.9-8.5-19.3c-3.2-3.5-7.1-6.1-11.6-7.6
			c-2-0.7-4.1-1.2-6.4-1.6c-2-0.3-4-0.4-6.2-0.4h-99c-9.9,0-17.9,3.1-24.2,9.4c-6.1,6.4-9.1,14.4-9.1,23.9v39.5
			c3.9-1.5,7.9-2.3,12.2-2.3c0.5,0,1.1,0,1.7,0c7,0.3,13.6,2.4,19.4,6.2V74H223z"/>
	</g>
	<path class="st3" d="M256,263.9V438c0,1.5,0.1,2.9,0.3,4.4c0.8,7.4,3.6,13.8,8.5,19.3c3.2,3.5,7.1,6,11.6,7.6
		c2,0.7,4.2,1.2,6.4,1.6c2,0.3,4,0.5,6.2,0.5h99c9.8,0,17.9-3.1,24.1-9.4c6.1-6.4,9.1-14.4,9.1-23.9V261.6H388V438h-99V296.9
		L256,263.9z"/>
	<g>
		<path class="st4" d="M103.9,150.6l99.8,99.7h46.7L127.3,127.3c-1-1-2.2-2-3.3-2.9c-5.8-4.7-12.3-7.2-19.7-7.6
			c-4.7-0.2-9.3,0.7-13.6,2.8c-1.9,0.9-3.8,2-5.6,3.4c-1.6,1.2-3.2,2.5-4.7,4.1l-70,70C3.5,204.1,0,212,0,220.8
			c0.3,8.8,3.8,16.6,10.5,23.3l27.9,28c1.7-3.9,4.1-7.3,7-10.3c0.4-0.4,0.8-0.7,1.2-1.1c5.2-4.8,11.3-7.9,18.1-9.4L34,220.6
			L103.9,150.6z"/>
		<polygon class="st4" points="158.7,345.4 108,294.5 79.6,294.5 79.6,313.3 135.2,368.9 		"/>
	</g>
	<g>
		<path class="st5" d="M74,289h141.1l33-33H74c-1.5,0-2.9,0.1-4.4,0.2c-7.4,0.8-13.8,3.6-19.3,8.5c-3.5,3.2-6,7.1-7.6,11.6
			c-0.7,2-1.2,4.1-1.5,6.4c-0.3,2-0.5,4-0.5,6.2v98.9c0,9.9,3.1,18,9.4,24.2c6.4,6.1,14.4,9.1,23.9,9.1h39.5
			c-1.5-3.9-2.3-8-2.3-12.2c0-0.5,0-1.1,0-1.6c0.4-7.1,2.4-13.6,6.2-19.5H74V289z"/>
		<polygon class="st5" points="249,387.9 178.6,387.9 158.5,408 171.8,421.2 249,421.2 		"/>
	</g>
	<g>
		<path class="st6" d="M150.6,408l99.8-99.8v-46.6L127.3,384.7c-1,1.1-2,2.2-2.9,3.2c-4.7,5.8-7.3,12.4-7.6,19.7
			c-0.2,4.7,0.8,9.3,2.8,13.6c0.9,1.9,2,3.8,3.4,5.6c1.2,1.6,2.5,3.2,4.1,4.7l70,70c7,7,14.9,10.5,23.7,10.5
			c8.9-0.3,16.6-3.8,23.3-10.5l27.9-27.9c-3.8-1.7-7.2-4-10.3-7c-0.4-0.4-0.7-0.8-1.1-1.2c-4.7-5.2-7.9-11.3-9.3-18.1L220.6,478
			L150.6,408z"/>
		<polygon class="st6" points="345.3,353.3 294.6,404 294.6,432.4 313.3,432.4 368.8,376.8 		"/>
	</g>
	<g>
		<polygon class="st7" points="261.6,261.6 308.2,261.6 382.3,335.7 382.3,382.3 		"/>
		<polygon class="st7" points="353.3,166.6 404,217.4 432.4,217.4 432.4,198.7 376.8,143.1 		"/>
		<path class="st7" d="M501.6,267.9l-27.9-28c-1.7,3.9-4.1,7.3-7,10.3c-0.4,0.4-0.8,0.7-1.2,1.1c-5.2,4.8-11.3,7.9-18.1,9.3
			l30.7,30.7l-51,51v46.4c1.5-1.2,3.1-2.4,4.6-3.9l70-70c6.9-7,10.5-14.9,10.5-23.7C511.8,282.3,508.2,274.6,501.6,267.9z"/>
	</g>
</g>
</svg>
