<svg xmlns="http://www.w3.org/2000/svg" width="408.588" height="112.057" viewBox="0 0 408.588 112.057">
  <g id="Group_4144" data-name="Group 4144" transform="translate(-49.766 -51.013)">
    <path id="Path_1" data-name="Path 1" d="M593.1,120.467H575.529V87.524h-5.856v32.433a6,6,0,0,0,1.568,4.189,5.5,5.5,0,0,0,4.288,1.717H593.1a5.821,5.821,0,0,0,4.29-1.665,5.955,5.955,0,0,0,1.616-4.24V87.524H593.1Z" transform="translate(-322.343 -22.637)" fill="#002776" fill-rule="evenodd"/>
    <path id="Path_2" data-name="Path 2" d="M511.22,126.079h-6.767l-15.29-17.413h-1.417v17.413H481.9V87.872h22.459a5.45,5.45,0,0,1,4.141,1.769,5.635,5.635,0,0,1,1.715,4.137v8.986q0,5.9-5.856,5.9h-8.222Zm-6.865-32.811H487.746v10.009h16.608Z" transform="translate(-267.92 -22.853)" fill="#002776" fill-rule="evenodd"/>
    <path id="Path_3" data-name="Path 3" d="M667.545,108.319v17.412H661.7V87.525h22.457a5.449,5.449,0,0,1,4.142,1.769,5.633,5.633,0,0,1,1.715,4.136v8.986q0,5.9-5.856,5.9H667.545Zm16.608-15.4H667.545V102.93h16.608Z" transform="translate(-379.397 -22.637)" fill="#002776" fill-rule="evenodd"/>
    <path id="Path_4" data-name="Path 4" d="M775.824,119.887q0,5.9-5.856,5.906H752.353q-4.7,0-5.656-3.939a8.645,8.645,0,0,1-.2-1.967V93.48a5.778,5.778,0,0,1,1.668-4.09,5.434,5.434,0,0,1,4.191-1.816h17.615a5.453,5.453,0,0,1,4.137,1.767,5.625,5.625,0,0,1,1.72,4.139Zm-5.856-26.905H752.35V120.4h17.617Z" transform="translate(-431.972 -22.668)" fill="#002776" fill-rule="evenodd"/>
    <path id="Path_5" data-name="Path 5" d="M419.042,126.049H395.563q-4.7,0-5.66-3.938a9.257,9.257,0,0,1-.2-1.969V93.732a5.771,5.771,0,0,1,1.667-4.09,5.437,5.437,0,0,1,4.191-1.818h22.521v5.367H395.563v27.493h17.622V108.623H401.466v-5.365h17.575Z" transform="translate(-210.762 -22.823)" fill="#002776" fill-rule="evenodd"/>
    <path id="Path_6" data-name="Path 6" d="M513.821,246.75H509.58l-19.469-26.615V246.75H484.2v-38.6h4.191l19.519,26.615V208.154h5.913Z" transform="translate(-269.349 -97.427)" fill="#002776" fill-rule="evenodd"/>
    <rect id="Rectangle_8" data-name="Rectangle 8" width="5.915" height="38.596" transform="translate(250.231 110.726)" fill="#002776"/>
    <path id="Path_7" data-name="Path 7" d="M632.178,208.153l-11.828,38.6h-5.967l-11.83-38.6h5.656l9.184,29.87,9.13-29.87Z" transform="translate(-342.729 -97.427)" fill="#002776" fill-rule="evenodd"/>
    <path id="Path_8" data-name="Path 8" d="M795.4,246.749h-6.835L773.113,229.16h-1.427v17.589h-5.915v-38.6H788.46a5.506,5.506,0,0,1,4.181,1.785,5.7,5.7,0,0,1,1.735,4.179V223.2q0,5.965-5.917,5.964h-8.3ZM788.46,213.6H771.686v10.111H788.46Z" transform="translate(-443.924 -97.427)" fill="#002776" fill-rule="evenodd"/>
    <path id="Path_9" data-name="Path 9" d="M883.917,240.784a5.865,5.865,0,0,1-1.528,4.179A5.646,5.646,0,0,1,878,246.749H856.792V241.3H878V229.157H862.25a6.024,6.024,0,0,1-3.776-1.174,5.382,5.382,0,0,1-1.988-3.158,6.385,6.385,0,0,1-.2-1.632V214.12a5.844,5.844,0,0,1,1.679-4.129,5.56,5.56,0,0,1,4.285-1.837h19.627v5.45H862.2v10.1H878a5.663,5.663,0,0,1,4.231,1.734,5.857,5.857,0,0,1,1.681,4.233Z" transform="translate(-500.042 -97.427)" fill="#002776" fill-rule="evenodd"/>
    <path id="Path_10" data-name="Path 10" d="M973.775,246.749h-5.917V229.16H950.066v17.589h-5.915V214.117a6.055,6.055,0,0,1,1.582-4.231,5.668,5.668,0,0,1,4.333-1.734h17.792a6.646,6.646,0,0,1,5.917,5.964ZM967.858,213.6H950.066v10.1h17.792Z" transform="translate(-554.519 -97.427)" fill="#002776" fill-rule="evenodd"/>
    <path id="Path_11" data-name="Path 11" d="M1060.97,246.75h-23.709v-38.6h5.917V241.3h17.792Z" transform="translate(-612.248 -97.427)" fill="#002776" fill-rule="evenodd"/>
    <path id="Path_12" data-name="Path 12" d="M1112.126,299.9a3.093,3.093,0,1,1,3.018-3.085,2.919,2.919,0,0,1-3.018,3.085m0-5.88a2.79,2.79,0,1,0,2.672,2.795,2.591,2.591,0,0,0-2.672-2.795m.9,4.431-1.024-1.464h-.372v1.422h-.493V294.98h.932c.717,0,1.184.372,1.184,1a.943.943,0,0,1-.719.946l1.012,1.41Zm-.972-3.021h-.439v1.158h.427c.438,0,.719-.2.719-.588,0-.37-.255-.571-.708-.571" transform="translate(-656.791 -150.477)" fill="#002776"/>
    <path id="Path_13" data-name="Path 13" d="M713.826,213.606v-5.45H690.119v38.6h23.707V241.3H696.034V229.16h15.519v-5.453H696.034v-10.1Z" transform="translate(-397.02 -97.428)" fill="#002776" fill-rule="evenodd"/>
    <path id="Path_14" data-name="Path 14" d="M414.741,241.3H397V214.06l-5.908-5.908h-.009v32.631a6.051,6.051,0,0,0,1.582,4.231A5.569,5.569,0,0,0,397,246.748h17.743a5.867,5.867,0,0,0,4.332-1.681,6.007,6.007,0,0,0,1.632-4.283V208.152h-5.964Z" transform="translate(-211.616 -97.426)" fill="#002776" fill-rule="evenodd"/>
    <path id="Path_15" data-name="Path 15" d="M239.881,132.223H209l-7.222,7.221h38.106a8.972,8.972,0,0,0,.953-.057,7.225,7.225,0,0,0,4.212-1.875,6.165,6.165,0,0,0,1.675-2.538,7.345,7.345,0,0,0,.339-1.394,9.24,9.24,0,0,0,.1-1.359V110.561a7.142,7.142,0,0,0-2.052-5.29,7.338,7.338,0,0,0-5.229-1.993h-8.648a7.355,7.355,0,0,1,.5,2.677c0,.118,0,.238-.01.358a8.4,8.4,0,0,1-1.358,4.248h9.514Z" transform="translate(-94.246 -32.404)" fill="#335291"/>
    <path id="Path_16" data-name="Path 16" d="M200.441,110.56h15.712l4.394-4.394-2.891-2.889H200.441Z" transform="translate(-93.419 -32.404)" fill="#335291"/>
    <path id="Path_17" data-name="Path 17" d="M214.52,73.767,192.681,95.606v10.212l26.945-26.945a8.939,8.939,0,0,0,.635-.712,7.241,7.241,0,0,0,1.653-4.3,6.123,6.123,0,0,0-.613-2.979,7.289,7.289,0,0,0-.743-1.226,9.157,9.157,0,0,0-.889-1.033L204.351,53.3a7.144,7.144,0,0,0-5.191-2.288,7.324,7.324,0,0,0-5.106,2.288l-6.115,6.115a7.273,7.273,0,0,1,2.245,1.538c.085.085.167.17.247.259a8.37,8.37,0,0,1,2.043,3.965l6.729-6.729Z" transform="translate(-85.667 0)" fill="#4d689f"/>
    <path id="Path_18" data-name="Path 18" d="M148.459,103.051V96.839h-4.087L132.2,109.011l5.148,5.151Z" transform="translate(-51.109 -28.412)" fill="#4d689f"/>
    <path id="Path_19" data-name="Path 19" d="M109.324,162.421V146.709l-4.394-4.394-2.889,2.889v17.217Z" transform="translate(-32.41 -56.607)" fill="#667dad"/>
    <path id="Path_20" data-name="Path 20" d="M130.985,81.729v30.884l7.221,7.221V81.729a8.972,8.972,0,0,0-.057-.953,7.236,7.236,0,0,0-1.873-4.212,6.187,6.187,0,0,0-2.54-1.675,7.561,7.561,0,0,0-1.394-.34,9.289,9.289,0,0,0-1.359-.1H109.323a7.153,7.153,0,0,0-5.29,2.054,7.336,7.336,0,0,0-1.993,5.228v8.649a7.348,7.348,0,0,1,2.677-.5c.118,0,.238,0,.358.007a8.381,8.381,0,0,1,4.248,1.361V81.729Z" transform="translate(-32.41 -14.528)" fill="#667dad"/>
    <path id="Path_21" data-name="Path 21" d="M197.214,202.186v38.106a8.9,8.9,0,0,0,.057.95,7.218,7.218,0,0,0,1.873,4.215,6.147,6.147,0,0,0,2.54,1.672,7.3,7.3,0,0,0,1.392.342,9.292,9.292,0,0,0,1.358.1H226.1a7.141,7.141,0,0,0,5.287-2.052,7.334,7.334,0,0,0,1.993-5.228V201.679H226.1v38.612H204.433V209.405Z" transform="translate(-91.418 -93.413)" fill="#002776"/>
    <path id="Path_22" data-name="Path 22" d="M72.52,125.684,94.36,147.523h10.21L77.626,120.578a9.238,9.238,0,0,0-.712-.632,7.23,7.23,0,0,0-4.307-1.655,6.146,6.146,0,0,0-2.977.613,7.2,7.2,0,0,0-1.226.743,9.341,9.341,0,0,0-1.035.889L52.054,135.854a7.149,7.149,0,0,0-2.288,5.191,7.325,7.325,0,0,0,2.288,5.106l6.115,6.116a7.274,7.274,0,0,1,1.538-2.245c.085-.085.17-.168.259-.248a8.369,8.369,0,0,1,3.965-2.042L57.2,141Z" transform="translate(0 -41.708)" fill="#8093ba"/>
    <path id="Path_23" data-name="Path 23" d="M112.924,231.787l-11.111-11.111H95.6v4.087l12.172,12.174Z" transform="translate(-28.418 -105.192)" fill="#8093ba"/>
    <path id="Path_24" data-name="Path 24" d="M80.5,205.672h30.884l7.222-7.222H80.5a8.972,8.972,0,0,0-.953.057,7.238,7.238,0,0,0-4.212,1.873,6.172,6.172,0,0,0-1.674,2.54,7.519,7.519,0,0,0-.34,1.392,9.3,9.3,0,0,0-.1,1.361v21.663a7.152,7.152,0,0,0,2.052,5.29,7.341,7.341,0,0,0,5.228,1.993h8.648a7.355,7.355,0,0,1-.5-2.677c0-.12,0-.238.007-.358a8.375,8.375,0,0,1,1.361-4.247H80.5Z" transform="translate(-14.538 -91.411)" fill="#99a9c8"/>
    <path id="Path_25" data-name="Path 25" d="M160.879,274.458H145.473l-4.394,4.394,2.889,2.889h16.91Z" transform="translate(-56.614 -138.536)" fill="#99a9c8"/>
    <path id="Path_26" data-name="Path 26" d="M124.447,233.727l21.839-21.839V201.676l-26.945,26.945a8.943,8.943,0,0,0-.634.712,7.239,7.239,0,0,0-1.653,4.3,6.148,6.148,0,0,0,.613,2.978,7.257,7.257,0,0,0,.743,1.227,9.315,9.315,0,0,0,.889,1.033l15.318,15.318a7.15,7.15,0,0,0,5.191,2.288,7.337,7.337,0,0,0,5.106-2.288l6.115-6.115a7.331,7.331,0,0,1-2.245-1.538c-.085-.085-.167-.17-.247-.26a8.379,8.379,0,0,1-2.042-3.965l-6.729,6.729Z" transform="translate(-41.714 -93.411)" fill="#b2bed6"/>
    <path id="Path_27" data-name="Path 27" d="M230.537,254.522l-11.094,11.094v6.212h4.085l12.158-12.158Z" transform="translate(-105.2 -126.176)" fill="#b2bed6"/>
    <path id="Path_28" data-name="Path 28" d="M200.441,201.677h10.212L226.872,217.9v10.212Z" transform="translate(-93.419 -93.412)" fill="#1a3d84"/>
    <path id="Path_29" data-name="Path 29" d="M253.241,138.586,264.352,149.7h6.212v-4.087l-12.172-12.172Z" transform="translate(-126.155 -51.103)" fill="#1a3d84"/>
    <path id="Path_30" data-name="Path 30" d="M312.021,195.3l-6.115-6.115a7.368,7.368,0,0,1-1.538,2.248c-.085.082-.172.165-.26.248a8.4,8.4,0,0,1-3.965,2.042l6.726,6.726L295.7,211.622v10.16a9.031,9.031,0,0,0,1-.863L312.021,205.6a7.15,7.15,0,0,0,2.288-5.193,7.341,7.341,0,0,0-2.288-5.106" transform="translate(-152.481 -85.669)" fill="#1a3d84"/>
  </g>
</svg>
